solid 
facet normal -0.61208653 0.78762746 -0.070661284
 outer loop
  vertex -48.600876 -22.394133 -49.18989
  vertex 27.741543 45.75968 49.18989
  vertex 29.521492 46.945324 46.98729
 endloop
endfacet
facet normal -0.61208653 0.78762746 -0.07066118
 outer loop
  vertex -48.600876 -22.394133 -49.18989
  vertex 29.521492 46.945324 46.98729
  vertex -46.820927 -21.208492 -51.392494
 endloop
endfacet
facet normal -0.4872163 0.8478361 -0.20927058
 outer loop
  vertex -46.820927 -21.208492 -51.392494
  vertex 29.521492 46.945324 46.98729
  vertex 31.633842 47.636433 44.86934
 endloop
endfacet
facet normal -0.48721692 0.84783584 -0.20927061
 outer loop
  vertex -46.820927 -21.208492 -51.392494
  vertex 31.633842 47.636433 44.86934
  vertex -44.708572 -20.51738 -53.510445
 endloop
endfacet
facet normal -0.34362584 0.87546206 -0.33983457
 outer loop
  vertex -44.708572 -20.51738 -53.510445
  vertex 31.633842 47.636433 44.86934
  vertex 33.99742 47.806465 42.91742
 endloop
endfacet
facet normal -0.34362543 0.875462 -0.3398352
 outer loop
  vertex -44.708572 -20.51738 -53.510445
  vertex 33.99742 47.806465 42.91742
  vertex -42.344994 -20.347351 -55.462364
 endloop
endfacet
facet normal -0.1868275 0.86944497 -0.45734122
 outer loop
  vertex -42.344994 -20.347351 -55.462364
  vertex 33.99742 47.806465 42.91742
  vertex 36.521397 47.448875 41.206547
 endloop
endfacet
facet normal -0.18682723 0.8694445 -0.4573421
 outer loop
  vertex -42.344994 -20.347351 -55.462364
  vertex 36.521397 47.448875 41.206547
  vertex -39.82102 -20.70494 -57.173237
 endloop
endfacet
facet normal -0.022849703 0.83001536 -0.5572722
 outer loop
  vertex -39.82102 -20.70494 -57.173237
  vertex 36.521397 47.448875 41.206547
  vertex 39.108772 46.577408 39.80247
 endloop
endfacet
facet normal -0.022850087 0.83001554 -0.5572721
 outer loop
  vertex -39.82102 -20.70494 -57.173237
  vertex 39.108772 46.577408 39.80247
  vertex -37.233643 -21.576408 -58.577312
 endloop
endfacet
facet normal 0.14200677 0.75868845 -0.63578767
 outer loop
  vertex -37.233643 -21.576408 -58.577312
  vertex 39.108772 46.577408 39.80247
  vertex 41.66012 45.225548 38.759148
 endloop
endfacet
facet normal 0.14200653 0.7586895 -0.6357865
 outer loop
  vertex -37.233643 -21.576408 -58.577312
  vertex 41.66012 45.225548 38.759148
  vertex -34.682297 -22.928267 -59.620636
 endloop
endfacet
facet normal 0.30140394 0.65820664 -0.68986934
 outer loop
  vertex -34.682297 -22.928267 -59.620636
  vertex 41.66012 45.225548 38.759148
  vertex 44.077385 43.44526 38.116673
 endloop
endfacet
facet normal 0.30140433 0.6582058 -0.68986994
 outer loop
  vertex -34.682297 -22.928267 -59.620636
  vertex 44.077385 43.44526 38.116673
  vertex -32.26503 -24.708557 -60.263107
 endloop
endfacet
facet normal 0.44921955 0.53242964 -0.7174403
 outer loop
  vertex -32.26503 -24.708557 -60.263107
  vertex 44.077385 43.44526 38.116673
  vertex 46.267685 41.304947 37.899734
 endloop
endfacet
facet normal 0.4492193 0.53243077 -0.7174396
 outer loop
  vertex -32.26503 -24.708557 -60.263107
  vertex 46.267685 41.304947 37.899734
  vertex -30.07473 -26.84887 -60.48005
 endloop
endfacet
facet normal 0.5797725 0.38619095 -0.7174402
 outer loop
  vertex -30.07473 -26.84887 -60.48005
  vertex 46.267685 41.304947 37.899734
  vertex 48.14684 38.886864 38.116673
 endloop
endfacet
facet normal 0.5797737 0.38618943 -0.71744007
 outer loop
  vertex -30.07473 -26.84887 -60.48005
  vertex 48.14684 38.886864 38.116673
  vertex -28.195574 -29.26695 -60.263107
 endloop
endfacet
facet normal 0.6880437 0.22511283 -0.68986964
 outer loop
  vertex -28.195574 -29.26695 -60.263107
  vertex 48.14684 38.886864 38.116673
  vertex 49.64264 36.28394 38.759148
 endloop
endfacet
facet normal 0.6880436 0.22511284 -0.6898698
 outer loop
  vertex -28.195574 -29.26695 -60.263107
  vertex 49.64264 36.28394 38.759148
  vertex -26.699776 -31.869877 -59.620636
 endloop
endfacet
facet normal 0.76987505 0.0553817 -0.6357871
 outer loop
  vertex -26.699776 -31.869877 -59.620636
  vertex 49.64264 36.28394 38.759148
  vertex 50.697594 33.5962 39.80247
 endloop
endfacet
facet normal 0.769875 0.055381365 -0.6357871
 outer loop
  vertex -26.699776 -31.869877 -59.620636
  vertex 50.697594 33.5962 39.80247
  vertex -25.644821 -34.557617 -58.577312
 endloop
endfacet
facet normal 0.8221196 -0.11647523 -0.5572727
 outer loop
  vertex -25.644821 -34.557617 -58.577312
  vertex 50.697594 33.5962 39.80247
  vertex 51.27117 30.926933 41.206547
 endloop
endfacet
facet normal 0.8221195 -0.116477795 -0.5572724
 outer loop
  vertex -25.644821 -34.557617 -58.577312
  vertex 51.27117 30.926933 41.206547
  vertex -25.071247 -37.226883 -57.173237
 endloop
endfacet
facet normal 0.8427711 -0.28385878 -0.4573412
 outer loop
  vertex -25.071247 -37.226883 -57.173237
  vertex 51.27117 30.926933 41.206547
  vertex 51.34132 28.378717 42.91742
 endloop
endfacet
facet normal 0.84277093 -0.28385755 -0.4573423
 outer loop
  vertex -25.071247 -37.226883 -57.173237
  vertex 51.34132 28.378717 42.91742
  vertex -25.001097 -39.775097 -55.462364
 endloop
endfacet
facet normal 0.83103526 -0.44033208 -0.33983532
 outer loop
  vertex -25.001097 -39.775097 -55.462364
  vertex 51.34132 28.378717 42.91742
  vertex 50.90535 26.04948 44.86934
 endloop
endfacet
facet normal 0.83103555 -0.4403308 -0.3398363
 outer loop
  vertex -25.001097 -39.775097 -55.462364
  vertex 50.90535 26.04948 44.86934
  vertex -25.437067 -42.104336 -53.510445
 endloop
endfacet
facet normal 0.7873629 -0.57988465 -0.20926894
 outer loop
  vertex -25.437067 -42.104336 -53.510445
  vertex 50.90535 26.04948 44.86934
  vertex 49.98001 24.028736 46.98729
 endloop
endfacet
facet normal 0.787363 -0.5798845 -0.20926882
 outer loop
  vertex -25.437067 -42.104336 -53.510445
  vertex 49.98001 24.028736 46.98729
  vertex -26.362402 -44.12508 -51.392494
 endloop
endfacet
facet normal 0.713434 -0.6971504 -0.07066304
 outer loop
  vertex -26.362402 -44.12508 -51.392494
  vertex 49.98001 24.028736 46.98729
  vertex 48.600876 22.394133 49.18989
 endloop
endfacet
facet normal 0.7134335 -0.69715106 -0.070662156
 outer loop
  vertex -26.362402 -44.12508 -51.392494
  vertex 48.600876 22.394133 49.18989
  vertex -27.741543 -45.75968 -49.18989
 endloop
endfacet
facet normal 0.6120863 -0.7876277 0.070661634
 outer loop
  vertex -27.741543 -45.75968 -49.18989
  vertex 48.600876 22.394133 49.18989
  vertex 46.820927 21.208492 51.392494
 endloop
endfacet
facet normal 0.61208683 -0.7876272 0.070660956
 outer loop
  vertex -27.741543 -45.75968 -49.18989
  vertex 46.820927 21.208492 51.392494
  vertex -29.521492 -46.945324 -46.98729
 endloop
endfacet
facet normal 0.4872166 -0.847836 0.20927027
 outer loop
  vertex -29.521492 -46.945324 -46.98729
  vertex 46.820927 21.208492 51.392494
  vertex 44.708572 20.51738 53.510445
 endloop
endfacet
facet normal 0.48721433 -0.84783685 0.20927253
 outer loop
  vertex -29.521492 -46.945324 -46.98729
  vertex 44.708572 20.51738 53.510445
  vertex -31.633842 -47.636433 -44.86934
 endloop
endfacet
facet normal 0.34362498 -0.8754621 0.3398353
 outer loop
  vertex -31.633842 -47.636433 -44.86934
  vertex 44.708572 20.51738 53.510445
  vertex 42.344994 20.347351 55.462364
 endloop
endfacet
facet normal 0.34362653 -0.87546194 0.33983403
 outer loop
  vertex -31.633842 -47.636433 -44.86934
  vertex 42.344994 20.347351 55.462364
  vertex -33.99742 -47.806465 -42.91742
 endloop
endfacet
facet normal 0.1868275 -0.86944497 0.45734122
 outer loop
  vertex -33.99742 -47.806465 -42.91742
  vertex 42.344994 20.347351 55.462364
  vertex 39.82102 20.70494 57.173237
 endloop
endfacet
facet normal 0.18682733 -0.86944497 0.45734122
 outer loop
  vertex -33.99742 -47.806465 -42.91742
  vertex 39.82102 20.70494 57.173237
  vertex -36.521397 -47.448875 -41.206547
 endloop
endfacet
facet normal 0.022849703 -0.83001536 0.5572722
 outer loop
  vertex -36.521397 -47.448875 -41.206547
  vertex 39.82102 20.70494 57.173237
  vertex 37.233643 21.576408 58.577312
 endloop
endfacet
facet normal 0.022850087 -0.83001554 0.5572721
 outer loop
  vertex -36.521397 -47.448875 -41.206547
  vertex 37.233643 21.576408 58.577312
  vertex -39.108772 -46.577408 -39.80247
 endloop
endfacet
facet normal -0.14200638 -0.7586886 0.6357875
 outer loop
  vertex -39.108772 -46.577408 -39.80247
  vertex 37.233643 21.576408 58.577312
  vertex 34.682297 22.928267 59.620636
 endloop
endfacet
facet normal -0.14200665 -0.758689 0.635787
 outer loop
  vertex -39.108772 -46.577408 -39.80247
  vertex 34.682297 22.928267 59.620636
  vertex -41.66012 -45.225548 -38.759148
 endloop
endfacet
facet normal -0.30140495 -0.6582058 0.68986964
 outer loop
  vertex -41.66012 -45.225548 -38.759148
  vertex 34.682297 22.928267 59.620636
  vertex 32.26503 24.708557 60.263107
 endloop
endfacet
facet normal -0.30140308 -0.65820664 0.68986964
 outer loop
  vertex -41.66012 -45.225548 -38.759148
  vertex 32.26503 24.708557 60.263107
  vertex -44.077385 -43.44526 -38.116673
 endloop
endfacet
facet normal -0.44921893 -0.53243023 0.71744025
 outer loop
  vertex -44.077385 -43.44526 -38.116673
  vertex 32.26503 24.708557 60.263107
  vertex 30.07473 26.84887 60.48005
 endloop
endfacet
facet normal -0.4492184 -0.532431 0.71743995
 outer loop
  vertex -44.077385 -43.44526 -38.116673
  vertex 30.07473 26.84887 60.48005
  vertex -46.267685 -41.304947 -37.899734
 endloop
endfacet
facet normal -0.57977265 -0.38619068 0.7174402
 outer loop
  vertex -46.267685 -41.304947 -37.899734
  vertex 30.07473 26.84887 60.48005
  vertex 28.195574 29.26695 60.263107
 endloop
endfacet
facet normal -0.5797713 -0.3861915 0.71744084
 outer loop
  vertex -46.267685 -41.304947 -37.899734
  vertex 28.195574 29.26695 60.263107
  vertex -48.14684 -38.886864 -38.116673
 endloop
endfacet
facet normal -0.68804353 -0.2251131 0.6898697
 outer loop
  vertex -48.14684 -38.886864 -38.116673
  vertex 28.195574 29.26695 60.263107
  vertex 26.699776 31.869877 59.620636
 endloop
endfacet
facet normal -0.6880443 -0.22511157 0.6898694
 outer loop
  vertex -48.14684 -38.886864 -38.116673
  vertex 26.699776 31.869877 59.620636
  vertex -49.64264 -36.28394 -38.759148
 endloop
endfacet
facet normal -0.76987505 -0.0553817 0.6357871
 outer loop
  vertex -49.64264 -36.28394 -38.759148
  vertex 26.699776 31.869877 59.620636
  vertex 25.644821 34.557617 58.577312
 endloop
endfacet
facet normal -0.76987517 -0.055380337 0.6357871
 outer loop
  vertex -49.64264 -36.28394 -38.759148
  vertex 25.644821 34.557617 58.577312
  vertex -50.697594 -33.5962 -39.80247
 endloop
endfacet
facet normal -0.82211983 0.11647612 0.55727226
 outer loop
  vertex -50.697594 -33.5962 -39.80247
  vertex 25.644821 34.557617 58.577312
  vertex 25.071247 37.226883 57.173237
 endloop
endfacet
facet normal -0.82211965 0.11647558 0.5572725
 outer loop
  vertex -50.697594 -33.5962 -39.80247
  vertex 25.071247 37.226883 57.173237
  vertex -51.27117 -30.926933 -41.206547
 endloop
endfacet
facet normal -0.8427711 0.2838585 0.4573414
 outer loop
  vertex -51.27117 -30.926933 -41.206547
  vertex 25.071247 37.226883 57.173237
  vertex 25.001097 39.775097 55.462364
 endloop
endfacet
facet normal -0.84277093 0.28385943 0.45734125
 outer loop
  vertex -51.27117 -30.926933 -41.206547
  vertex 25.001097 39.775097 55.462364
  vertex -51.34132 -28.378717 -42.91742
 endloop
endfacet
facet normal -0.8310353 0.4403319 0.33983546
 outer loop
  vertex -51.34132 -28.378717 -42.91742
  vertex 25.001097 39.775097 55.462364
  vertex 25.437067 42.104336 53.510445
 endloop
endfacet
facet normal -0.83103544 0.44033235 0.33983463
 outer loop
  vertex -51.34132 -28.378717 -42.91742
  vertex 25.437067 42.104336 53.510445
  vertex -50.90535 -26.04948 -44.86934
 endloop
endfacet
facet normal 0.5377866 0.480103 0.6930272
 outer loop
  vertex 31.633842 47.636433 44.86934
  vertex 29.521492 46.945324 46.98729
  vertex 27.741543 45.75968 49.18989
 endloop
endfacet
facet normal 0.53779125 0.48009938 0.69302607
 outer loop
  vertex 27.741543 45.75968 49.18989
  vertex 26.362402 44.12508 51.392494
  vertex 25.437067 42.104336 53.510445
 endloop
endfacet
facet normal 0.5377834 0.48010466 0.69302857
 outer loop
  vertex 25.437067 42.104336 53.510445
  vertex 25.001097 39.775097 55.462364
  vertex 25.071247 37.226883 57.173237
 endloop
endfacet
facet normal 0.5377875 0.48010305 0.6930265
 outer loop
  vertex 25.071247 37.226883 57.173237
  vertex 25.644821 34.557617 58.577312
  vertex 26.699776 31.869877 59.620636
 endloop
endfacet
facet normal 0.5377802 0.4801001 0.6930342
 outer loop
  vertex 26.699776 31.869877 59.620636
  vertex 28.195574 29.26695 60.263107
  vertex 30.07473 26.84887 60.48005
 endloop
endfacet
facet normal 0.5377846 0.4800991 0.69303143
 outer loop
  vertex 30.07473 26.84887 60.48005
  vertex 32.26503 24.708557 60.263107
  vertex 34.682297 22.928267 59.620636
 endloop
endfacet
facet normal 0.5377869 0.48009977 0.69302917
 outer loop
  vertex 34.682297 22.928267 59.620636
  vertex 37.233643 21.576408 58.577312
  vertex 39.82102 20.70494 57.173237
 endloop
endfacet
facet normal 0.53778684 0.48010314 0.6930269
 outer loop
  vertex 39.82102 20.70494 57.173237
  vertex 42.344994 20.347351 55.462364
  vertex 44.708572 20.51738 53.510445
 endloop
endfacet
facet normal 0.53778183 0.48010945 0.69302636
 outer loop
  vertex 44.708572 20.51738 53.510445
  vertex 46.820927 21.208492 51.392494
  vertex 48.600876 22.394133 49.18989
 endloop
endfacet
facet normal 0.53779656 0.4800948 0.6930252
 outer loop
  vertex 48.600876 22.394133 49.18989
  vertex 49.98001 24.028736 46.98729
  vertex 50.90535 26.04948 44.86934
 endloop
endfacet
facet normal 0.5377874 0.48010275 0.6930267
 outer loop
  vertex 50.90535 26.04948 44.86934
  vertex 51.34132 28.378717 42.91742
  vertex 51.27117 30.926933 41.206547
 endloop
endfacet
facet normal 0.5377902 0.48010325 0.6930243
 outer loop
  vertex 51.27117 30.926933 41.206547
  vertex 50.697594 33.5962 39.80247
  vertex 49.64264 36.28394 38.759148
 endloop
endfacet
facet normal 0.53778994 0.48010477 0.6930234
 outer loop
  vertex 49.64264 36.28394 38.759148
  vertex 48.14684 38.886864 38.116673
  vertex 46.267685 41.304947 37.899734
 endloop
endfacet
facet normal 0.53778726 0.48010358 0.6930263
 outer loop
  vertex 46.267685 41.304947 37.899734
  vertex 44.077385 43.44526 38.116673
  vertex 41.66012 45.225548 38.759148
 endloop
endfacet
facet normal 0.53778696 0.48009852 0.6930301
 outer loop
  vertex 41.66012 45.225548 38.759148
  vertex 39.108772 46.577408 39.80247
  vertex 36.521397 47.448875 41.206547
 endloop
endfacet
facet normal 0.5377874 0.48010048 0.69302833
 outer loop
  vertex 36.521397 47.448875 41.206547
  vertex 33.99742 47.806465 42.91742
  vertex 31.633842 47.636433 44.86934
 endloop
endfacet
facet normal 0.5377862 0.4801036 0.693027
 outer loop
  vertex 31.633842 47.636433 44.86934
  vertex 27.741543 45.75968 49.18989
  vertex 25.437067 42.104336 53.510445
 endloop
endfacet
facet normal 0.537787 0.48010305 0.6930268
 outer loop
  vertex 25.437067 42.104336 53.510445
  vertex 25.071247 37.226883 57.173237
  vertex 26.699776 31.869877 59.620636
 endloop
endfacet
facet normal 0.5377873 0.48010355 0.69302624
 outer loop
  vertex 26.699776 31.869877 59.620636
  vertex 30.07473 26.84887 60.48005
  vertex 34.682297 22.928267 59.620636
 endloop
endfacet
facet normal 0.5377871 0.4801022 0.69302726
 outer loop
  vertex 34.682297 22.928267 59.620636
  vertex 39.82102 20.70494 57.173237
  vertex 44.708572 20.51738 53.510445
 endloop
endfacet
facet normal 0.53778523 0.48010442 0.6930273
 outer loop
  vertex 44.708572 20.51738 53.510445
  vertex 48.600876 22.394133 49.18989
  vertex 50.90535 26.04948 44.86934
 endloop
endfacet
facet normal 0.537786 0.48010337 0.69302744
 outer loop
  vertex 50.90535 26.04948 44.86934
  vertex 51.27117 30.926933 41.206547
  vertex 49.64264 36.28394 38.759148
 endloop
endfacet
facet normal 0.5377871 0.48010343 0.6930265
 outer loop
  vertex 49.64264 36.28394 38.759148
  vertex 46.267685 41.304947 37.899734
  vertex 41.66012 45.225548 38.759148
 endloop
endfacet
facet normal 0.53778714 0.48010126 0.693028
 outer loop
  vertex 41.66012 45.225548 38.759148
  vertex 36.521397 47.448875 41.206547
  vertex 31.633842 47.636433 44.86934
 endloop
endfacet
facet normal 0.53778666 0.4801031 0.693027
 outer loop
  vertex 31.633842 47.636433 44.86934
  vertex 25.437067 42.104336 53.510445
  vertex 26.699776 31.869877 59.620636
 endloop
endfacet
facet normal 0.537787 0.48010325 0.6930267
 outer loop
  vertex 26.699776 31.869877 59.620636
  vertex 34.682297 22.928267 59.620636
  vertex 44.708572 20.51738 53.510445
 endloop
endfacet
facet normal 0.5377863 0.4801033 0.69302726
 outer loop
  vertex 44.708572 20.51738 53.510445
  vertex 50.90535 26.04948 44.86934
  vertex 49.64264 36.28394 38.759148
 endloop
endfacet
facet normal 0.5377869 0.48010325 0.6930267
 outer loop
  vertex 49.64264 36.28394 38.759148
  vertex 41.66012 45.225548 38.759148
  vertex 31.633842 47.636433 44.86934
 endloop
endfacet
facet normal 0.53778684 0.48010296 0.69302696
 outer loop
  vertex 31.633842 47.636433 44.86934
  vertex 26.699776 31.869877 59.620636
  vertex 44.708572 20.51738 53.510445
 endloop
endfacet
facet normal 0.5377868 0.48010293 0.693027
 outer loop
  vertex 44.708572 20.51738 53.510445
  vertex 49.64264 36.28394 38.759148
  vertex 31.633842 47.636433 44.86934
 endloop
endfacet
facet normal -0.7873632 0.579884 0.20926961
 outer loop
  vertex -50.90535 -26.04948 -44.86934
  vertex 25.437067 42.104336 53.510445
  vertex 26.362402 44.12508 51.392494
 endloop
endfacet
facet normal -0.787363 0.5798845 0.20926882
 outer loop
  vertex -50.90535 -26.04948 -44.86934
  vertex 26.362402 44.12508 51.392494
  vertex -49.98001 -24.028736 -46.98729
 endloop
endfacet
facet normal -0.7134332 0.69715136 0.07066178
 outer loop
  vertex -49.98001 -24.028736 -46.98729
  vertex 26.362402 44.12508 51.392494
  vertex 27.741543 45.75968 49.18989
 endloop
endfacet
facet normal -0.7134345 0.6971498 0.070663385
 outer loop
  vertex -49.98001 -24.028736 -46.98729
  vertex 27.741543 45.75968 49.18989
  vertex -48.600876 -22.394133 -49.18989
 endloop
endfacet
facet normal -0.53778285 -0.48010826 -0.69302654
 outer loop
  vertex -49.98001 -24.028736 -46.98729
  vertex -48.600876 -22.394133 -49.18989
  vertex -46.820927 -21.208492 -51.392494
 endloop
endfacet
facet normal -0.53778964 -0.48009607 -0.6930297
 outer loop
  vertex -46.820927 -21.208492 -51.392494
  vertex -44.708572 -20.51738 -53.510445
  vertex -42.344994 -20.347351 -55.462364
 endloop
endfacet
facet normal -0.53778684 -0.48010314 -0.69302696
 outer loop
  vertex -42.344994 -20.347351 -55.462364
  vertex -39.82102 -20.70494 -57.173237
  vertex -37.233643 -21.576408 -58.577312
 endloop
endfacet
facet normal -0.5377883 -0.48010734 -0.69302285
 outer loop
  vertex -37.233643 -21.576408 -58.577312
  vertex -34.682297 -22.928267 -59.620636
  vertex -32.26503 -24.708557 -60.263107
 endloop
endfacet
facet normal -0.5377921 -0.480108 -0.6930195
 outer loop
  vertex -32.26503 -24.708557 -60.263107
  vertex -30.07473 -26.84887 -60.48005
  vertex -28.195574 -29.26695 -60.263107
 endloop
endfacet
facet normal -0.53778946 -0.48010314 -0.69302493
 outer loop
  vertex -28.195574 -29.26695 -60.263107
  vertex -26.699776 -31.869877 -59.620636
  vertex -25.644821 -34.557617 -58.577312
 endloop
endfacet
facet normal -0.5377887 -0.48010284 -0.6930257
 outer loop
  vertex -25.644821 -34.557617 -58.577312
  vertex -25.071247 -37.226883 -57.173237
  vertex -25.001097 -39.775097 -55.462364
 endloop
endfacet
facet normal -0.5377857 -0.4801034 -0.69302756
 outer loop
  vertex -25.001097 -39.775097 -55.462364
  vertex -25.437067 -42.104336 -53.510445
  vertex -26.362402 -44.12508 -51.392494
 endloop
endfacet
facet normal -0.537784 -0.4801064 -0.69302684
 outer loop
  vertex -26.362402 -44.12508 -51.392494
  vertex -27.741543 -45.75968 -49.18989
  vertex -29.521492 -46.945324 -46.98729
 endloop
endfacet
facet normal -0.5377859 -0.48010442 -0.6930268
 outer loop
  vertex -29.521492 -46.945324 -46.98729
  vertex -31.633842 -47.636433 -44.86934
  vertex -33.99742 -47.806465 -42.91742
 endloop
endfacet
facet normal -0.53778684 -0.48010314 -0.69302696
 outer loop
  vertex -33.99742 -47.806465 -42.91742
  vertex -36.521397 -47.448875 -41.206547
  vertex -39.108772 -46.577408 -39.80247
 endloop
endfacet
facet normal -0.5377885 -0.48010623 -0.6930235
 outer loop
  vertex -39.108772 -46.577408 -39.80247
  vertex -41.66012 -45.225548 -38.759148
  vertex -44.077385 -43.44526 -38.116673
 endloop
endfacet
facet normal -0.53778595 -0.48010215 -0.6930282
 outer loop
  vertex -44.077385 -43.44526 -38.116673
  vertex -46.267685 -41.304947 -37.899734
  vertex -48.14684 -38.886864 -38.116673
 endloop
endfacet
facet normal -0.5377837 -0.48010278 -0.69302964
 outer loop
  vertex -48.14684 -38.886864 -38.116673
  vertex -49.64264 -36.28394 -38.759148
  vertex -50.697594 -33.5962 -39.80247
 endloop
endfacet
facet normal -0.53778315 -0.4801042 -0.6930291
 outer loop
  vertex -50.697594 -33.5962 -39.80247
  vertex -51.27117 -30.926933 -41.206547
  vertex -51.34132 -28.378717 -42.91742
 endloop
endfacet
facet normal -0.5377816 -0.48010585 -0.69302917
 outer loop
  vertex -51.34132 -28.378717 -42.91742
  vertex -50.90535 -26.04948 -44.86934
  vertex -49.98001 -24.028736 -46.98729
 endloop
endfacet
facet normal -0.53778476 -0.4801061 -0.6930265
 outer loop
  vertex -49.98001 -24.028736 -46.98729
  vertex -46.820927 -21.208492 -51.392494
  vertex -42.344994 -20.347351 -55.462364
 endloop
endfacet
facet normal -0.5377869 -0.48010275 -0.69302714
 outer loop
  vertex -42.344994 -20.347351 -55.462364
  vertex -37.233643 -21.576408 -58.577312
  vertex -32.26503 -24.708557 -60.263107
 endloop
endfacet
facet normal -0.5377858 -0.48010242 -0.69302815
 outer loop
  vertex -32.26503 -24.708557 -60.263107
  vertex -28.195574 -29.26695 -60.263107
  vertex -25.644821 -34.557617 -58.577312
 endloop
endfacet
facet normal -0.5377853 -0.48010364 -0.6930277
 outer loop
  vertex -25.644821 -34.557617 -58.577312
  vertex -25.001097 -39.775097 -55.462364
  vertex -26.362402 -44.12508 -51.392494
 endloop
endfacet
facet normal -0.5377859 -0.48010424 -0.6930269
 outer loop
  vertex -26.362402 -44.12508 -51.392494
  vertex -29.521492 -46.945324 -46.98729
  vertex -33.99742 -47.806465 -42.91742
 endloop
endfacet
facet normal -0.537787 -0.48010176 -0.69302773
 outer loop
  vertex -33.99742 -47.806465 -42.91742
  vertex -39.108772 -46.577408 -39.80247
  vertex -44.077385 -43.44526 -38.116673
 endloop
endfacet
facet normal -0.5377875 -0.4801035 -0.6930262
 outer loop
  vertex -44.077385 -43.44526 -38.116673
  vertex -48.14684 -38.886864 -38.116673
  vertex -50.697594 -33.5962 -39.80247
 endloop
endfacet
facet normal -0.5377849 -0.4801038 -0.69302803
 outer loop
  vertex -50.697594 -33.5962 -39.80247
  vertex -51.34132 -28.378717 -42.91742
  vertex -49.98001 -24.028736 -46.98729
 endloop
endfacet
facet normal -0.5377869 -0.48010287 -0.6930271
 outer loop
  vertex -49.98001 -24.028736 -46.98729
  vertex -42.344994 -20.347351 -55.462364
  vertex -32.26503 -24.708557 -60.263107
 endloop
endfacet
facet normal -0.53778696 -0.48010293 -0.69302696
 outer loop
  vertex -32.26503 -24.708557 -60.263107
  vertex -25.644821 -34.557617 -58.577312
  vertex -26.362402 -44.12508 -51.392494
 endloop
endfacet
facet normal -0.5377871 -0.48010254 -0.6930272
 outer loop
  vertex -26.362402 -44.12508 -51.392494
  vertex -33.99742 -47.806465 -42.91742
  vertex -44.077385 -43.44526 -38.116673
 endloop
endfacet
facet normal -0.53778666 -0.48010305 -0.69302714
 outer loop
  vertex -44.077385 -43.44526 -38.116673
  vertex -50.697594 -33.5962 -39.80247
  vertex -49.98001 -24.028736 -46.98729
 endloop
endfacet
facet normal -0.5377869 -0.48010296 -0.693027
 outer loop
  vertex -49.98001 -24.028736 -46.98729
  vertex -32.26503 -24.708557 -60.263107
  vertex -26.362402 -44.12508 -51.392494
 endloop
endfacet
facet normal -0.5377869 -0.48010302 -0.69302696
 outer loop
  vertex -26.362402 -44.12508 -51.392494
  vertex -44.077385 -43.44526 -38.116673
  vertex -49.98001 -24.028736 -46.98729
 endloop
endfacet
endsolid 
