solid generated_mesh
  facet normal 0 0 1
    outer loop
      vertex 4 4 4
      vertex -4 4 4
      vertex -4 -4 4
    endloop
  endfacet
  facet normal 0 0 1
    outer loop
      vertex 4 4 4
      vertex -4 -4 4
      vertex 4 -4 4
    endloop
  endfacet
  facet normal 0 -1 0
    outer loop
      vertex 4 -4 -4
      vertex 4 -4 4
      vertex -4 -4 4
    endloop
  endfacet
  facet normal 0 -1 0
    outer loop
      vertex 4 -4 -4
      vertex -4 -4 4
      vertex -4 -4 -4
    endloop
  endfacet
  facet normal -1 0 0
    outer loop
      vertex -4 -4 -4
      vertex -4 -4 4
      vertex -4 4 4
    endloop
  endfacet
  facet normal -1 0 0
    outer loop
      vertex -4 -4 -4
      vertex -4 4 4
      vertex -4 4 -4
    endloop
  endfacet
  facet normal 0 0 -1
    outer loop
      vertex -4 4 -4
      vertex 4 4 -4
      vertex 4 -4 -4
    endloop
  endfacet
  facet normal 0 0 -1
    outer loop
      vertex -4 4 -4
      vertex 4 -4 -4
      vertex -4 -4 -4
    endloop
  endfacet
  facet normal 1 0 -0
    outer loop
      vertex 4 4 -4
      vertex 4 4 4
      vertex 4 -4 4
    endloop
  endfacet
  facet normal 1 0 0
    outer loop
      vertex 4 4 -4
      vertex 4 -4 4
      vertex 4 -4 -4
    endloop
  endfacet
  facet normal -0.83205 0.5547 0
    outer loop
      vertex -4 4 -4
      vertex -4 4 4
      vertex 0 10 0
    endloop
  endfacet
  facet normal 0 0.5547 -0.83205
    outer loop
      vertex 4 4 -4
      vertex -4 4 -4
      vertex 0 10 0
    endloop
  endfacet
  facet normal -0 0.5547 0.83205
    outer loop
      vertex -4 4 4
      vertex 4 4 4
      vertex 0 10 0
    endloop
  endfacet
  facet normal 0.83205 0.5547 0
    outer loop
      vertex 4 4 4
      vertex 4 4 -4
      vertex 0 10 0
    endloop
  endfacet
endsolid generated_mesh
